<svg width="8" height="8" viewBox="0 0 8 8" fill="none" xmlns="http://www.w3.org/2000/svg">
<path d="M7.33333 3.63329V1.36663C7.33333 0.866626 7.12 0.666626 6.59 0.666626H5.24333C4.71333 0.666626 4.5 0.866626 4.5 1.36663V3.63329C4.5 4.13329 4.71333 4.33329 5.24333 4.33329H6.59C7.12 4.33329 7.33333 4.13329 7.33333 3.63329Z" stroke="#35480D" stroke-width="0.5" stroke-linecap="round" stroke-linejoin="round"/>
<path d="M7.33333 6.63337V6.03337C7.33333 5.53337 7.12 5.33337 6.59 5.33337H5.24333C4.71333 5.33337 4.5 5.53337 4.5 6.03337V6.63337C4.5 7.13337 4.71333 7.33337 5.24333 7.33337H6.59C7.12 7.33337 7.33333 7.13337 7.33333 6.63337Z" stroke="#35480D" stroke-width="0.5" stroke-linecap="round" stroke-linejoin="round"/>
<path d="M3.49996 4.36663V6.63329C3.49996 7.13329 3.28663 7.33329 2.75663 7.33329H1.40996C0.879959 7.33329 0.666626 7.13329 0.666626 6.63329V4.36663C0.666626 3.86663 0.879959 3.66663 1.40996 3.66663H2.75663C3.28663 3.66663 3.49996 3.86663 3.49996 4.36663Z" stroke="#35480D" stroke-width="0.5" stroke-linecap="round" stroke-linejoin="round"/>
<path d="M3.49996 1.36663V1.96663C3.49996 2.46663 3.28663 2.66663 2.75663 2.66663H1.40996C0.879959 2.66663 0.666626 2.46663 0.666626 1.96663V1.36663C0.666626 0.866626 0.879959 0.666626 1.40996 0.666626H2.75663C3.28663 0.666626 3.49996 0.866626 3.49996 1.36663Z" stroke="#35480D" stroke-width="0.5" stroke-linecap="round" stroke-linejoin="round"/>
</svg>
