<svg width="32" height="32" viewBox="0 0 32 32" fill="none" xmlns="http://www.w3.org/2000/svg">
<path d="M8 28C10.2091 28 12 26.2091 12 24C12 21.7909 10.2091 20 8 20C5.79086 20 4 21.7909 4 24C4 26.2091 5.79086 28 8 28Z" fill="#C47EFB" stroke="#C47EFB" stroke-width="2.66667" stroke-linecap="round" stroke-linejoin="round"/>
<path d="M24 26.6719C26.2091 26.6719 28 24.881 28 22.6719C28 20.4627 26.2091 18.6719 24 18.6719C21.7909 18.6719 20 20.4627 20 22.6719C20 24.881 21.7909 26.6719 24 26.6719Z" fill="#C47EFB" stroke="#C47EFB" stroke-width="2.66667" stroke-linecap="round" stroke-linejoin="round"/>
<path d="M28 4L12 8V13.3333L28 9.33333V4Z" fill="#C47EFB"/>
<path d="M12 24V13.3333M12 13.3333V8L28 4V9.33333M12 13.3333L28 9.33333M28 22.6667V9.33333" stroke="#C47EFB" stroke-width="2.66667" stroke-linecap="round" stroke-linejoin="round"/>
</svg>
