<svg width="8" height="8" viewBox="0 0 8 8" fill="none" xmlns="http://www.w3.org/2000/svg">
<path d="M6.0467 7.20662C5.75337 7.29329 5.4067 7.33329 5.00004 7.33329H3.00004C2.59337 7.33329 2.2467 7.29329 1.95337 7.20662C2.0267 6.33996 2.9167 5.65662 4.00004 5.65662C5.08337 5.65662 5.97337 6.33996 6.0467 7.20662Z" stroke="white" stroke-width="0.5" stroke-linecap="round" stroke-linejoin="round"/>
<path d="M4.99996 0.666626H2.99996C1.33329 0.666626 0.666626 1.33329 0.666626 2.99996V4.99996C0.666626 6.25996 1.04663 6.94996 1.95329 7.20662C2.02663 6.33996 2.91663 5.65662 3.99996 5.65662C5.08329 5.65662 5.97329 6.33996 6.04663 7.20662C6.95329 6.94996 7.33329 6.25996 7.33329 4.99996V2.99996C7.33329 1.33329 6.66663 0.666626 4.99996 0.666626ZM3.99996 4.72329C3.33996 4.72329 2.80663 4.18663 2.80663 3.52663C2.80663 2.86663 3.33996 2.33329 3.99996 2.33329C4.65996 2.33329 5.19329 2.86663 5.19329 3.52663C5.19329 4.18663 4.65996 4.72329 3.99996 4.72329Z" stroke="white" stroke-width="0.5" stroke-linecap="round" stroke-linejoin="round"/>
<path d="M5.19331 3.52671C5.19331 4.18671 4.65997 4.72337 3.99997 4.72337C3.33997 4.72337 2.80664 4.18671 2.80664 3.52671C2.80664 2.86671 3.33997 2.33337 3.99997 2.33337C4.65997 2.33337 5.19331 2.86671 5.19331 3.52671Z" stroke="white" stroke-width="0.5" stroke-linecap="round" stroke-linejoin="round"/>
</svg>
