<svg width="40" height="38" viewBox="0 0 40 38" fill="none" xmlns="http://www.w3.org/2000/svg">
<path d="M29.3027 22.1987C29.1257 21.9 29.0638 21.5471 29.1286 21.206C29.1934 20.8649 29.3804 20.5593 29.6546 20.3464C29.9288 20.1335 30.2713 20.028 30.6178 20.0497C30.9643 20.0714 31.2909 20.2188 31.5364 20.4643C31.7819 20.7098 31.9293 21.0364 31.951 21.3829C31.9727 21.7294 31.8672 22.0718 31.6543 22.3461C31.4414 22.6203 31.1357 22.8073 30.7947 22.8721C30.4536 22.9369 30.1007 22.875 29.802 22.698V22.698L29.3086 22.8377C29.2884 22.8436 29.267 22.844 29.2466 22.8387C29.2262 22.8335 29.2076 22.8229 29.1927 22.808C29.1778 22.7931 29.1672 22.7745 29.1619 22.7541C29.1567 22.7337 29.1571 22.7123 29.163 22.6921L29.3027 22.1987Z" stroke="#4F0DA3" stroke-width="0.285326" stroke-linecap="round" stroke-linejoin="round"/>
<path d="M16.082 32.4643C15.905 32.1657 15.8431 31.8127 15.9079 31.4716C15.9727 31.1306 16.1597 30.8249 16.4339 30.612C16.7081 30.3991 17.0506 30.2936 17.3971 30.3153C17.7436 30.337 18.0702 30.4844 18.3157 30.7299C18.5612 30.9754 18.7086 31.302 18.7303 31.6485C18.752 31.995 18.6465 32.3375 18.4336 32.6117C18.2207 32.8859 17.915 33.0729 17.574 33.1377C17.2329 33.2025 16.8799 33.1406 16.5813 32.9636V32.9636L16.0879 33.1033C16.0677 33.1092 16.0463 33.1096 16.0259 33.1044C16.0055 33.0991 15.9869 33.0885 15.972 33.0736C15.9571 33.0588 15.9465 33.0401 15.9412 33.0197C15.936 32.9993 15.9364 32.9779 15.9423 32.9577L16.082 32.4643Z" stroke="#4F0DA3" stroke-width="0.285326" stroke-linecap="round" stroke-linejoin="round"/>
<path d="M6.25391 20.6328H3.63842C3.57276 20.6328 3.51953 20.686 3.51953 20.7517V22.6539C3.51953 22.7195 3.57276 22.7728 3.63842 22.7728H6.25391C6.31957 22.7728 6.37279 22.7195 6.37279 22.6539V20.7517C6.37279 20.686 6.31957 20.6328 6.25391 20.6328Z" stroke="#4F0DA3" stroke-width="0.285326" stroke-linecap="round" stroke-linejoin="round"/>
<path d="M5.54042 22.7717V20.394C5.54042 20.331 5.51537 20.2705 5.47078 20.2259C5.42619 20.1813 5.36571 20.1562 5.30265 20.1562H4.58933C4.52627 20.1562 4.4658 20.1813 4.4212 20.2259C4.37661 20.2705 4.35156 20.331 4.35156 20.394V22.7717" stroke="#4F0DA3" stroke-width="0.285326" stroke-linecap="round" stroke-linejoin="round"/>
<path d="M31.8379 15.2109H29.2224C29.1567 15.2109 29.1035 15.2642 29.1035 15.3298V17.232C29.1035 17.2977 29.1567 17.3509 29.2224 17.3509H31.8379C31.9035 17.3509 31.9568 17.2977 31.9568 17.232V15.3298C31.9568 15.2642 31.9035 15.2109 31.8379 15.2109Z" stroke="#4F0DA3" stroke-width="0.285326" stroke-linecap="round" stroke-linejoin="round"/>
<path d="M31.1244 17.3499V14.9721C31.1244 14.9091 31.0994 14.8486 31.0548 14.804C31.0102 14.7594 30.9497 14.7344 30.8866 14.7344H30.1733C30.1103 14.7344 30.0498 14.7594 30.0052 14.804C29.9606 14.8486 29.9355 14.9091 29.9355 14.9721V17.3499" stroke="#4F0DA3" stroke-width="0.285326" stroke-linecap="round" stroke-linejoin="round"/>
<path d="M24.7878 5.41406H22.3863C22.3571 5.4142 22.3289 5.42499 22.307 5.4444C22.2851 5.46382 22.2711 5.49054 22.2674 5.51957L22.0564 7.42175C22.0545 7.43832 22.0562 7.4551 22.0612 7.47101C22.0662 7.48691 22.0746 7.50157 22.0856 7.51405C22.0967 7.52652 22.1103 7.53652 22.1255 7.54341C22.1407 7.55029 22.1571 7.55391 22.1738 7.55401H25.0003C25.017 7.55391 25.0335 7.55029 25.0487 7.54341C25.0639 7.53652 25.0774 7.52652 25.0885 7.51405C25.0996 7.50157 25.1079 7.48691 25.1129 7.47101C25.118 7.4551 25.1196 7.43832 25.1177 7.42175L24.9067 5.51957C24.9031 5.49054 24.889 5.46382 24.8672 5.4444C24.8453 5.42499 24.8171 5.4142 24.7878 5.41406V5.41406Z" stroke="#4F0DA3" stroke-width="0.285326" stroke-linecap="round" stroke-linejoin="round"/>
<path d="M22.9922 5.89029V5.41474C22.9922 5.25709 23.0548 5.10589 23.1663 4.99442C23.2778 4.88294 23.429 4.82031 23.5866 4.82031C23.7443 4.82031 23.8955 4.88294 24.0069 4.99442C24.1184 5.10589 24.181 5.25709 24.181 5.41474V5.89029" stroke="#4F0DA3" stroke-width="0.285326" stroke-linecap="round" stroke-linejoin="round"/>
<path d="M30.0437 25.691C30.0039 25.6461 29.9548 25.6101 29.8999 25.5855C29.845 25.5608 29.7855 25.5481 29.7252 25.5481H28.9365V25.3671C28.9363 25.191 28.8659 25.0223 28.7407 24.8978C28.6156 24.7733 28.446 24.7033 28.269 24.7031C28.2353 24.7031 28.2021 24.7125 28.1734 24.7302C28.1446 24.7478 28.1214 24.7731 28.1063 24.8032L27.5498 25.9103H26.9342C26.8538 25.9103 26.7766 25.9421 26.7197 25.9987C26.6628 26.0553 26.6309 26.132 26.6309 26.2121V27.5399C26.6309 27.62 26.6628 27.6967 26.7197 27.7533C26.7766 27.8099 26.8538 27.8417 26.9342 27.8417H29.5432C29.6467 27.8417 29.7466 27.8041 29.8242 27.7359C29.9018 27.6678 29.9517 27.5738 29.9646 27.4716L30.1466 26.023C30.1541 25.9636 30.1488 25.9032 30.131 25.846C30.1133 25.7888 30.0836 25.7359 30.0437 25.691ZM26.9949 26.2724H27.4803V27.4796H26.9949V26.2724ZM29.7859 25.9782L29.6039 27.4268C29.602 27.4414 29.5948 27.4549 29.5836 27.4646C29.5724 27.4744 29.558 27.4797 29.5432 27.4796H27.8443V26.134L28.3725 25.0834C28.4311 25.1045 28.4817 25.1431 28.5174 25.1938C28.5532 25.2446 28.5724 25.3051 28.5724 25.3671V25.7292C28.5724 25.7772 28.5916 25.8233 28.6257 25.8572C28.6599 25.8912 28.7062 25.9103 28.7544 25.9103H29.7252C29.7339 25.9102 29.7424 25.912 29.7503 25.9155C29.7582 25.919 29.7653 25.9241 29.771 25.9305C29.7768 25.937 29.7811 25.9445 29.7836 25.9528C29.7862 25.961 29.787 25.9696 29.7859 25.9782Z" fill="#4F0DA3"/>
<path d="M16.3105 5V6.01647C16.3105 6.048 16.3231 6.07824 16.3454 6.10054C16.3677 6.12283 16.3979 6.13536 16.4294 6.13536H18.5694C18.6009 6.13536 18.6311 6.12283 18.6534 6.10054C18.6757 6.07824 18.6883 6.048 18.6883 6.01647V5" stroke="#4F0DA3" stroke-width="0.285326" stroke-linecap="round" stroke-linejoin="round"/>
<path d="M16.4002 3.51562H18.5996C18.6254 3.51584 18.6504 3.52433 18.671 3.53985C18.6916 3.55536 18.7067 3.57709 18.714 3.60182L18.9265 4.34783H16.0732L16.2858 3.60182C16.2931 3.57709 16.3081 3.55536 16.3287 3.53985C16.3493 3.52433 16.3744 3.51584 16.4002 3.51562V3.51562Z" stroke="#4F0DA3" stroke-width="0.285326" stroke-linecap="round" stroke-linejoin="round"/>
<path d="M17.0243 4.34375V4.58152C17.0243 4.70764 16.9742 4.8286 16.885 4.91778C16.7959 5.00696 16.6749 5.05707 16.5488 5.05707C16.4227 5.05707 16.3017 5.00696 16.2125 4.91778C16.1233 4.8286 16.0732 4.70764 16.0732 4.58152V4.34375" stroke="#4F0DA3" stroke-width="0.285326" stroke-linecap="round" stroke-linejoin="round"/>
<path d="M17.9755 4.34375V4.58152C17.9755 4.70764 17.9254 4.8286 17.8362 4.91778C17.747 5.00696 17.6261 5.05707 17.5 5.05707C17.3738 5.05707 17.2529 5.00696 17.1637 4.91778C17.0745 4.8286 17.0244 4.70764 17.0244 4.58152V4.34375" stroke="#4F0DA3" stroke-width="0.285326" stroke-linecap="round" stroke-linejoin="round"/>
<path d="M18.9267 4.34375V4.58152C18.9267 4.70764 18.8766 4.8286 18.7874 4.91778C18.6982 5.00696 18.5773 5.05707 18.4511 5.05707C18.325 5.05707 18.2041 5.00696 18.1149 4.91778C18.0257 4.8286 17.9756 4.70764 17.9756 4.58152V4.34375" stroke="#4F0DA3" stroke-width="0.285326" stroke-linecap="round" stroke-linejoin="round"/>
<path d="M23.3964 30.3339C23.6591 30.3339 23.872 30.121 23.872 29.8584C23.872 29.5957 23.6591 29.3828 23.3964 29.3828C23.1338 29.3828 22.9209 29.5957 22.9209 29.8584C22.9209 30.121 23.1338 30.3339 23.3964 30.3339Z" stroke="#4F0DA3" stroke-width="0.285326" stroke-linecap="round" stroke-linejoin="round"/>
<path d="M24.5847 29.8607C24.5847 30.9307 23.3959 31.7629 23.3959 31.7629C23.3959 31.7629 22.207 30.9307 22.207 29.8607C22.207 29.5454 22.3323 29.243 22.5552 29.0201C22.7782 28.7971 23.0806 28.6719 23.3959 28.6719C23.7112 28.6719 24.0136 28.7971 24.2365 29.0201C24.4595 29.243 24.5847 29.5454 24.5847 29.8607V29.8607Z" stroke="#4F0DA3" stroke-width="0.285326" stroke-linecap="round" stroke-linejoin="round"/>
<path d="M3.52528 14.8771L4.39612 17.393C4.43327 17.5015 4.58782 17.4985 4.622 17.3885L4.97272 16.2502C4.97801 16.2316 4.98805 16.2147 5.00186 16.2011C5.01567 16.1876 5.03277 16.1778 5.05148 16.1729L6.18832 15.8222C6.29829 15.788 6.30126 15.6335 6.19278 15.5963L3.67686 14.7255C3.65572 14.718 3.63291 14.7167 3.61107 14.7217C3.58922 14.7267 3.56922 14.7377 3.55338 14.7536C3.53753 14.7694 3.52649 14.7894 3.52152 14.8113C3.51655 14.8331 3.51785 14.8559 3.52528 14.8771V14.8771Z" stroke="#4F0DA3" stroke-width="0.285326" stroke-linecap="round" stroke-linejoin="round"/>
<path d="M11.9361 28.625H9.55834C9.49268 28.625 9.43945 28.6782 9.43945 28.7439V31.1216C9.43945 31.1873 9.49268 31.2405 9.55834 31.2405H11.9361C12.0017 31.2405 12.0549 31.1873 12.0549 31.1216V28.7439C12.0549 28.6782 12.0017 28.625 11.9361 28.625Z" stroke="#4F0DA3" stroke-width="0.285326" stroke-linecap="round" stroke-linejoin="round"/>
<path d="M12.0549 30.4141L11.4263 29.7855C11.4153 29.7742 11.4021 29.7653 11.3875 29.7592C11.373 29.7531 11.3574 29.75 11.3416 29.75C11.3259 29.75 11.3103 29.7531 11.2957 29.7592C11.2812 29.7653 11.268 29.7742 11.2569 29.7855L10.5941 30.4483C10.5831 30.4595 10.5699 30.4684 10.5553 30.4745C10.5408 30.4806 10.5252 30.4837 10.5094 30.4837C10.4937 30.4837 10.4781 30.4806 10.4635 30.4745C10.449 30.4684 10.4358 30.4595 10.4247 30.4483L10.1186 30.1421C10.1075 30.1309 10.0943 30.122 10.0798 30.1159C10.0653 30.1098 10.0496 30.1067 10.0339 30.1067C10.0181 30.1067 10.0025 30.1098 9.98797 30.1159C9.97342 30.122 9.96024 30.1309 9.94918 30.1421L9.43945 30.6518" stroke="#4F0DA3" stroke-width="0.285326" stroke-linecap="round" stroke-linejoin="round"/>
<path d="M8.73905 9.8004C8.69918 9.75547 8.65016 9.71949 8.59524 9.69485C8.54032 9.67022 8.48076 9.65749 8.42052 9.6575H7.63176V9.47643C7.63156 9.30041 7.56118 9.13165 7.43606 9.00718C7.31094 8.88271 7.1413 8.8127 6.96436 8.8125C6.93057 8.8125 6.89744 8.82186 6.8687 8.83953C6.83995 8.8572 6.81672 8.88248 6.8016 8.91254L6.24507 10.0196H5.62954C5.54908 10.0196 5.47192 10.0514 5.41503 10.108C5.35813 10.1646 5.32617 10.2414 5.32617 10.3214V11.6493C5.32617 11.7293 5.35813 11.8061 5.41503 11.8627C5.47192 11.9193 5.54908 11.9511 5.62954 11.9511H8.2385C8.34201 11.9511 8.44196 11.9134 8.51955 11.8453C8.59715 11.7771 8.64705 11.6831 8.65988 11.5809L8.8419 10.1324C8.84938 10.0729 8.84409 10.0126 8.82636 9.95538C8.80863 9.89815 8.77887 9.84532 8.73905 9.8004ZM5.69021 10.3818H6.1756V11.5889H5.69021V10.3818ZM8.48119 10.0876L8.29917 11.5361C8.29731 11.5508 8.29011 11.5643 8.27893 11.574C8.26774 11.5837 8.25336 11.5891 8.2385 11.5889H6.53964V10.2434L7.0678 9.19275C7.12638 9.21389 7.17699 9.25246 7.21276 9.30321C7.24853 9.35397 7.26772 9.41445 7.26772 9.47643V9.83858C7.26772 9.8866 7.2869 9.93266 7.32104 9.96661C7.35517 10.0006 7.40147 10.0196 7.44974 10.0196H8.42052C8.42917 10.0196 8.43773 10.0214 8.44563 10.0248C8.45354 10.0283 8.4606 10.0335 8.46634 10.0399C8.47209 10.0463 8.47639 10.0539 8.47895 10.0621C8.48151 10.0703 8.48227 10.079 8.48119 10.0876Z" fill="#4F0DA3"/>
<path d="M28.0575 12.2439C28.8454 12.2439 29.4841 11.6052 29.4841 10.8173C29.4841 10.0293 28.8454 9.39062 28.0575 9.39062C27.2696 9.39062 26.6309 10.0293 26.6309 10.8173C26.6309 11.6052 27.2696 12.2439 28.0575 12.2439Z" stroke="#4F0DA3" stroke-width="0.285326" stroke-linecap="round" stroke-linejoin="round"/>
<path d="M28.4141 10.5156H28.7707" stroke="#4F0DA3" stroke-width="0.285326" stroke-linecap="round" stroke-linejoin="round"/>
<path d="M28.6759 11.1719C28.613 11.2802 28.5228 11.37 28.4143 11.4325C28.3059 11.495 28.1829 11.5278 28.0577 11.5278C27.9325 11.5278 27.8095 11.495 27.701 11.4325C27.5925 11.37 27.5023 11.2802 27.4395 11.1719" stroke="#4F0DA3" stroke-width="0.285326" stroke-linecap="round" stroke-linejoin="round"/>
<circle cx="17.4999" cy="18.3261" r="9.70109" fill="#4F0DA3"/>
<path d="M12.6422 19.3736V19.9531H10.3774V19.4627L11.4206 18.366C11.5127 18.2605 11.587 18.1661 11.6435 18.0829C11.7 17.9982 11.7409 17.9217 11.7661 17.8533C11.7929 17.7849 11.8062 17.7233 11.8062 17.6683C11.8062 17.5747 11.7921 17.4966 11.7639 17.4342C11.7371 17.3703 11.697 17.322 11.6435 17.2893C11.5915 17.2566 11.5269 17.2403 11.4496 17.2403C11.3723 17.2403 11.3047 17.2626 11.2467 17.3072C11.1888 17.3518 11.1434 17.4127 11.1108 17.49C11.0795 17.5672 11.0639 17.6542 11.0639 17.7508H10.3105C10.3105 17.5516 10.3588 17.3696 10.4554 17.2046C10.5535 17.0397 10.6895 16.9082 10.8633 16.8101C11.0372 16.7105 11.2386 16.6607 11.4674 16.6607C11.7067 16.6607 11.9073 16.6979 12.0693 16.7722C12.2313 16.8465 12.3531 16.9542 12.4348 17.0954C12.5181 17.2351 12.5597 17.4038 12.5597 17.6014C12.5597 17.7144 12.5418 17.8228 12.5062 17.9269C12.4705 18.0309 12.4192 18.1342 12.3524 18.2367C12.2855 18.3378 12.2038 18.4418 12.1072 18.5488C12.0121 18.6558 11.9036 18.7695 11.7817 18.8898L11.3626 19.3736H12.6422ZM15.7272 18.2189V19.5519C15.6723 19.6128 15.5876 19.6782 15.4731 19.748C15.3602 19.8164 15.2175 19.8751 15.0451 19.9241C14.8727 19.9732 14.6699 19.9977 14.4366 19.9977C14.2211 19.9977 14.0257 19.9635 13.8503 19.8952C13.675 19.8253 13.5241 19.7235 13.3978 19.5898C13.273 19.4545 13.1764 19.2896 13.108 19.0949C13.0412 18.8988 13.0077 18.6744 13.0077 18.4217V18.2412C13.0077 17.9885 13.0419 17.7641 13.1103 17.568C13.1786 17.3718 13.2745 17.2069 13.3978 17.0731C13.5227 16.9379 13.669 16.8353 13.837 16.7655C14.0064 16.6957 14.1921 16.6607 14.3942 16.6607C14.6929 16.6607 14.9359 16.7083 15.1232 16.8034C15.3104 16.897 15.4523 17.027 15.5489 17.1935C15.6455 17.3584 15.7042 17.5494 15.725 17.7664H14.9738C14.9589 17.6594 14.9307 17.5687 14.8891 17.4944C14.849 17.4186 14.791 17.3614 14.7152 17.3228C14.6394 17.2827 14.5414 17.2626 14.421 17.2626C14.3274 17.2626 14.2419 17.2827 14.1646 17.3228C14.0888 17.3629 14.0242 17.4238 13.9707 17.5056C13.9172 17.5858 13.8756 17.6869 13.8459 17.8087C13.8176 17.9306 13.8035 18.0732 13.8035 18.2367V18.4217C13.8035 18.5837 13.8169 18.7256 13.8436 18.8475C13.8719 18.9693 13.9135 19.0711 13.9685 19.1529C14.0249 19.2331 14.0963 19.2941 14.1825 19.3357C14.2701 19.3758 14.3734 19.3958 14.4923 19.3958C14.5755 19.3958 14.6469 19.3892 14.7063 19.3758C14.7658 19.3609 14.8148 19.3431 14.8534 19.3223C14.8936 19.3 14.924 19.2792 14.9448 19.2599V18.7561H14.4009V18.2189H15.7272ZM18.4178 19.3513V19.9531H16.688V19.3513H18.4178ZM16.9666 16.7075V19.9531H16.1842V16.7075H16.9666ZM18.1949 17.996V18.5778H16.688V17.996H18.1949ZM18.4245 16.7075V17.3116H16.688V16.7075H18.4245ZM19.7931 19.9531H19.0731L19.0776 19.3513H19.7931C19.9417 19.3513 20.0673 19.3156 20.1699 19.2443C20.2739 19.1729 20.3526 19.0667 20.4061 18.9255C20.4611 18.7828 20.4886 18.6075 20.4886 18.3994V18.259C20.4886 18.103 20.473 17.9662 20.4418 17.8488C20.4121 17.73 20.3675 17.6311 20.3081 17.5524C20.2486 17.4721 20.1743 17.4119 20.0852 17.3718C19.9975 17.3317 19.8964 17.3116 19.782 17.3116H19.0598V16.7075H19.782C20.0019 16.7075 20.2033 16.7454 20.3861 16.8212C20.5704 16.8955 20.7294 17.0025 20.8631 17.1422C20.9983 17.2804 21.1024 17.4446 21.1752 17.6349C21.2495 17.8236 21.2866 18.0331 21.2866 18.2635V18.3994C21.2866 18.6283 21.2495 18.8378 21.1752 19.028C21.1024 19.2183 20.9991 19.3825 20.8653 19.5207C20.7316 19.6589 20.5733 19.7659 20.3905 19.8417C20.2092 19.916 20.0101 19.9531 19.7931 19.9531ZM19.5212 16.7075V19.9531H18.7388V16.7075H19.5212ZM23.0209 17.3896L22.2296 19.9531H21.3892L22.5818 16.7075H23.1145L23.0209 17.3896ZM23.6762 19.9531L22.8827 17.3896L22.7801 16.7075H23.3196L24.5189 19.9531H23.6762ZM23.645 18.7427V19.3468H21.9799V18.7427H23.645Z" fill="white"/>
<circle cx="17.5" cy="18.3281" r="17.1196" stroke="#4F0DA3" stroke-width="0.76087"/>
<path d="M7.12297 24.9844C6.85942 24.9844 6.62552 25.09 6.46705 25.2714C6.30858 25.09 6.07468 24.9844 5.81113 24.9844C5.58159 24.9847 5.36152 25.0773 5.19921 25.2421C5.0369 25.4068 4.94559 25.6302 4.94531 25.8632C4.94531 26.8264 6.33337 27.596 6.39241 27.6283C6.41535 27.6409 6.441 27.6474 6.46705 27.6474C6.49311 27.6474 6.51876 27.6409 6.5417 27.6283C6.60073 27.596 7.98879 26.8264 7.98879 25.8632C7.98851 25.6302 7.8972 25.4068 7.73489 25.2421C7.57258 25.0773 7.35252 24.9847 7.12297 24.9844ZM7.05095 26.8799C6.86825 27.0372 6.67294 27.1789 6.46705 27.3033C6.26116 27.1789 6.06585 27.0372 5.88315 26.8799C5.59887 26.6324 5.26016 26.2549 5.26016 25.8632C5.26016 25.7148 5.3182 25.5726 5.42153 25.4677C5.52486 25.3629 5.665 25.3039 5.81113 25.3039C6.04464 25.3039 6.2401 25.4291 6.32131 25.6307C6.33312 25.6601 6.3533 25.6852 6.37926 25.7029C6.40521 25.7206 6.43578 25.7301 6.46705 25.7301C6.49832 25.7301 6.52889 25.7206 6.55485 25.7029C6.5808 25.6852 6.60098 25.6601 6.6128 25.6307C6.694 25.4291 6.88947 25.3039 7.12297 25.3039C7.2691 25.3039 7.40924 25.3629 7.51257 25.4677C7.6159 25.5726 7.67395 25.7148 7.67395 25.8632C7.67395 26.2549 7.33523 26.6324 7.05095 26.8799Z" fill="#4F0DA3"/>
<g clip-path="url(#clip0_1_3074)">
<path d="M12.3534 4.92188C12.0899 4.92188 11.856 5.02746 11.6975 5.20894C11.539 5.02746 11.3051 4.92188 11.0416 4.92188C10.8121 4.92216 10.592 5.01483 10.4297 5.17958C10.2674 5.34432 10.1761 5.56768 10.1758 5.80066C10.1758 6.76386 11.5638 7.53346 11.6229 7.56581C11.6458 7.57835 11.6715 7.58492 11.6975 7.58492C11.7236 7.58492 11.7492 7.57835 11.7722 7.56581C11.8312 7.53346 13.2193 6.76386 13.2193 5.80066C13.219 5.56768 13.1277 5.34432 12.9654 5.17958C12.803 5.01483 12.583 4.92216 12.3534 4.92188ZM12.2814 6.81738C12.0987 6.97474 11.9034 7.11637 11.6975 7.2408C11.4916 7.11637 11.2963 6.97474 11.1136 6.81738C10.8293 6.56986 10.4906 6.19238 10.4906 5.80066C10.4906 5.65234 10.5487 5.5101 10.652 5.40523C10.7553 5.30035 10.8955 5.24143 11.0416 5.24143C11.2751 5.24143 11.4706 5.36659 11.5518 5.56818C11.5636 5.59757 11.5838 5.62272 11.6097 5.64042C11.6357 5.65812 11.6662 5.66757 11.6975 5.66757C11.7288 5.66757 11.7594 5.65812 11.7853 5.64042C11.8113 5.62272 11.8314 5.59757 11.8433 5.56818C11.9245 5.36659 12.1199 5.24143 12.3534 5.24143C12.4996 5.24143 12.6397 5.30035 12.743 5.40523C12.8464 5.5101 12.9044 5.65234 12.9044 5.80066C12.9044 6.19238 12.5657 6.56986 12.2814 6.81738Z" fill="#4F0DA3"/>
</g>
<defs>
<clipPath id="clip0_1_3074">
<rect width="3.2337" height="3.2337" fill="white" transform="translate(10.0811 4.63281)"/>
</clipPath>
</defs>
</svg>
